<svg id="Layer_2" data-name="Layer 2" xmlns="http://www.w3.org/2000/svg" viewBox="0 0 380 218"><defs><style>.cls-1{fill:#605a5a;}</style></defs><title>logo</title><path class="cls-1" d="M13.24,62.55l1.87,38.18a11.78,11.78,0,0,1-3.74,1.88c-3,1.12-1.12,4.86.75,4.11s4.12,1.13,3.74,4.12.75,25.08.75,25.08-3.18,8.42,1.31,9.17,2.25-8.24,1.5-8.61-.75-22.83-.75-22.83,0-2.62,1.87-1.13,19.84,21.71,28.07,35.19c0,0,4.5,10.85,6,3.74,0,0,5.24-1.87,1.13-5.24,0,0-1.5-15,1.49-18a58.83,58.83,0,0,1,7.49-6s0-2.62-2.25-.75-4.86,3.74-5.61,3.74,1.87-1.87-1.12-4.49-6.74,1.5-5.24,4.12,1.87,18.34,1.49,19.83a1.36,1.36,0,0,1-2.24.75c-.38-.37-25.08-33.68-28.45-35.93s-4.49-5.24-2.62-6.74S49,80.71,53.85,74.72s2.25-8.23-1.49-7.49S49.74,74,45.25,78.09,20.92,99.42,17.17,100.17l-1.12-39.3s-.37-1.87-3-2.25S13.24,62.55,13.24,62.55Z"/><path class="cls-1" d="M67.7,81.08s.38-3,4.49-3,4.5,3,4.5,3,.37,3.37-4.5,3S67.7,81.08,67.7,81.08Z"/><path class="cls-1" d="M75.56,132.36s0-1.12,1.88-3-.38-4.87-3.37-4.87-3.75,3-3,5.62.38,15.34.38,15.34-1.13,3.37.74,4.12,4.5.37,3.75-1.12-1.87-3.75-1.5-8.61A41.51,41.51,0,0,1,75.56,132.36Z"/><path class="cls-1" d="M101,126s7.11.75,3.36-4.49a8,8,0,0,0-9.73,0c-5.24,3.74-12,11.23-12,15.72s3,8.23,10.85,12.72,13.1,7.49,17.59,12,8.24,8.24,9,19.47-.75,14.59-4.5,19.46-9.73,7.49-16.09,7.86-17.22-.37-24.71-6-8.6-3.37-8.6-3,4.11,3,6.73,4.49,13.85,9.36,27,7.48,16.1-8.23,17.22-9.35a25.08,25.08,0,0,0,4.49-20.59s1.87-9.73-9.36-21.34c0,0-9-7.86-17.59-12S86,140.6,86,137.23s1.88-6,6-8.61a19.39,19.39,0,0,1,6.74-3A8,8,0,0,0,101,126Z"/><path class="cls-1" d="M343.29,10.73s6.75-4.16,5.23-8.25-5.45-2.06-6.33-.55-1.44,7.78-1.44,7.78a29.27,29.27,0,0,0-2.21,8.11c-.86,5.47-2.2,16.42-2.2,16.42L334.52,55c-.93,10.6-1.39,20.05-1.29,23.23s-1,16.12-1.21,18.08-2.16,20.38-2.16,20.38-.84,13.77-.77,17.33.59,10.34.25,14.26,1.21,7.62,2,7.69,1.94-5,1-7-1.61-11.61-1.34-14.75-.11-15.83.71-20.9,2.22-16.81,2.22-16.81,1.52-17.27,1.29-18.88,1.59-22.4,1.59-22.4l1.41-20.44,3.73-21Z"/><path class="cls-1" d="M122.83,123.71c0-1.07-.08-2.07-.1-2.95-.16-4.88.74-16.1.74-16.1s.19-13.66-.56-17.78c-.27-1.51-.37-21.33-.37-21.33V46.46L124,25.87l.93-3.18s6.36-4.49,4.49-8.23-5.61-1.5-6.36,0-.75,7.48-.75,7.48-.93,1.69-1.5,7.86c-.47,5.24-.74,15.72-.74,15.72V65.36c0,10.11.37,19.09.74,22.09s.38,15.34.38,17.21-.32,17-.37,19.21a47.43,47.43,0,0,0-9.74,1.75s-7.48,1.13-4.12,4.12a4.54,4.54,0,0,0,6.37,0,24.16,24.16,0,0,1,7.56-3.15c.13,4,.4,11.56.67,14,.38,3.37,1.5,9.73,1.5,13.47s1.87,7.11,2.62,7.11,1.5-4.86.37-6.73-2.62-10.86-2.62-13.85c0-2.21-.3-8.77-.54-14.39q1-.15,2-.21c6.74-.38,10.48-.38,12.35-.38s4.12-.74,4.87-1.87A156.64,156.64,0,0,0,122.83,123.71Z"/><path class="cls-1" d="M161.28,152.2c-3.74-3.37-5.24-3.37-5.62-9.73s1.5-3.74,1.13-8.61c0,0-1.13-3.37-7.86-1.5s-10.48,9.73-10.48,10.86-3,9.73,4.86,9,7.11-7.49,8.61-8.61a20.94,20.94,0,0,0,8.24,10.86S165,155.57,161.28,152.2Zm-12-7.11c-.75,2.24-3.74,5.61-6.74,4.86s-3.74-3-1.12-7.86c0,0,4.49-5.61,7.11-4.86S150.05,142.84,149.3,145.09Z"/><path class="cls-1" d="M253,154.45c-4.49-.38-7.11-2.62-6-7.12s9.74-4.49,11.61-10.1,3.74-7.86,0-9.73-9,2.24-12,6-5.62,9.74-4.12,14.6,4.87,8.24,10.11,8.61,10.85-2.62,10.85-2.62V153S257.47,154.82,253,154.45Zm3-23.59s3.74-.74.75,4.5-9,2.62-9,2.62C250,132.74,256,130.86,256,130.86Z"/><path class="cls-1" d="M266.46,134.61s-.75,3.74.37,5.24-.37,12.35,0,12.72-.37,2.62,1.87,3,2.25-3.74,2.25-3.74-.75-11.23.75-13.1,2.62-6.37,9.35-7.49,0-3,0-3a22.7,22.7,0,0,0-8.6,4.12s-4.12-.37-4.5,0A24.1,24.1,0,0,0,266.46,134.61Z"/><path class="cls-1" d="M311.37,43.28c-1.49,0-1.87,2.62-1.49,4.12s-1.13,8.6-2.25,11.22S305,72.85,302.76,85.2s-2.62,28.82-2.62,30.69-1.87,14.23-1.87,14.23c-1.12,0-5.61,1.49-7.86,2.62s-7.48,6-8.61,14.59,5.62,8.61,9.73,8.24,5.62-5.24,7.12-5.24h3.74a54.64,54.64,0,0,1,0-9c.37-6,1.12-9.36,1.5-12.36s0-7.86,0-11.6.37-24,1.49-32.19S311,53,312.12,49.64,312.87,43.28,311.37,43.28ZM294.53,151.83c-6.74,4.86-10.11-.38-10.48-1.88s-.75-5.24,3.74-11.22,9.36-4.12,9.36-4.12c-.75,4.49-.75,2.24,0,7.48S294.53,151.83,294.53,151.83Zm6.36-18c-1.49,0-.75-7.11-.37-9.73s1.5-9.73,1.5-9.73,0,5.61.37,9S302.39,133.86,300.89,133.86Z"/><path class="cls-1" d="M322.23,153.32s-6,.38-6.37-1.12,1.13-1.12,4.87-6.36,2.62-8.61-1.87-6.74-5.24,5.61-7.49,6.36-4.11,1.13-3,3.37,4.86,6.36,7.86,6.74S322.23,153.32,322.23,153.32Z"/><path class="cls-1" d="M339.45,155.94l.74-11.6s-.74-4.87.38-5.24,6.36-1.87,6.36,1.5-1.87,2.24-2.62,4.49-1.87,10.85-1.87,10.85S340.94,158.19,339.45,155.94Z"/><path class="cls-1" d="M373.51,157.44c-.38-.75-1.5-.75-3-1.12s-4.49-1.13-3.74-9.36-1.5-7.49-2.62-6.74-5.24,4.87-6.36,9a22.77,22.77,0,0,1-1,2.85,69.38,69.38,0,0,1,1.37-7.71c.75-2.38,2.62-1.19,2.62-4.75s-5.24-2-6.36-1.59-.38,5.54-.38,5.54l-.75,12.27c.82,1.29,1.63,1.18,2.2.81.78.62,2.13.2,3.79-6.68,2.62-10.85,6-4.86,5.62-3s-.75,6.74,1.12,8.61a9.87,9.87,0,0,0,5.24,2.62C372.76,158.56,373.88,158.19,373.51,157.44Z"/><ellipse class="cls-1" cx="344.31" cy="120.76" rx="3.74" ry="1.87"/><path class="cls-1" d="M254.4,3.5c-2.56.68-2.07,8.16-2.07,8.16s-.67,7.23-2.51,10.84-8.67,48.85-10.33,57.33-7.75,69.85-7.75,69.85c-.5-1.07-2.14,1-2.14,1s-5.77-14-7-18c-.73-2.42-3.24-10.68-5.31-17.82,1-3.57,2.39-7.82,5.06-16a8,8,0,0,0,1.5-2.36c.71-1.64.89-3.18.5-3.76l.13-.39-.21.29a.49.49,0,0,0-.15-.1c-.66-.29-1.87,1-2.69,2.91a5.69,5.69,0,0,0-.6,3.56c-1.05,3.1-2.72,8.09-4.35,13-1-3.49-1.79-6.41-2.06-7.8-.89-4.42-4.77-11.88-4.77-11.88s-1.26-4.38-3.36-3-.64,4.22-.64,4.22c3.47,10.53,7.14,16.13,7.14,16.13.29,1.21,1.09,3.72,2.17,6.93-1.16,3.54-2.19,6.71-2.8,8.7-1.49,4.87-3,14.84-3.8,20.67-1.6-10.83-8.89-59.83-10.72-67.29-2.05-8.39-11-53.27-13-56.78s-3-10.71-3-10.71.13-7.5-2.45-8-.06,6.37-.06,6.37l1,2.32,8.65,32.85s9.16,47.15,10.74,57,7.68,47.05,7.68,47.05-.71,4.82,1.83,6.12,2.27-4.88,2.27-4.88l-.37-1a2.83,2.83,0,0,1-.23.2,177.57,177.57,0,0,1,3.75-23.33c.64-2.54,1.13-4.5,1.6-6.28,4.36,12.68,11.46,32.11,11.46,32.11s1.85,6.19,4.32,4.77,1.54-6.21,1.54-6.21,4.34-37.42,5.46-47.35,8-57.45,8-57.45l7.08-33.22.86-2.36S257,2.83,254.4,3.5Z"/></svg>
