<svg xmlns="http://www.w3.org/2000/svg" xmlns:xlink="http://www.w3.org/1999/xlink" width="37" height="37" viewBox="0 0 37 37">
  <defs>
    <clipPath id="clip-path">
      <rect width="37" height="37" fill="none"/>
    </clipPath>
  </defs>
  <g id="Symbol_1_18" data-name="Symbol 1 – 18" clip-path="url(#clip-path)">
    <path id="Path_3" data-name="Path 3" d="M18.5,3.289a56.725,56.725,0,0,1,7.4.206,9.534,9.534,0,0,1,3.494.617,7.219,7.219,0,0,1,3.494,3.494,9.534,9.534,0,0,1,.617,3.494c0,1.85.206,2.467.206,7.4a56.725,56.725,0,0,1-.206,7.4,9.534,9.534,0,0,1-.617,3.494,7.219,7.219,0,0,1-3.494,3.494,9.534,9.534,0,0,1-3.494.617c-1.85,0-2.467.206-7.4.206a56.725,56.725,0,0,1-7.4-.206,9.534,9.534,0,0,1-3.494-.617,7.219,7.219,0,0,1-3.494-3.494A9.534,9.534,0,0,1,3.494,25.9c0-1.85-.206-2.467-.206-7.4a56.725,56.725,0,0,1,.206-7.4,9.534,9.534,0,0,1,.617-3.494A7.383,7.383,0,0,1,5.55,5.55,3.475,3.475,0,0,1,7.606,4.111,9.534,9.534,0,0,1,11.1,3.494a56.725,56.725,0,0,1,7.4-.206M18.5,0a60.736,60.736,0,0,0-7.606.206,12.69,12.69,0,0,0-4.522.822A8.047,8.047,0,0,0,3.083,3.083,8.047,8.047,0,0,0,1.028,6.372a9.366,9.366,0,0,0-.822,4.522A60.736,60.736,0,0,0,0,18.5a60.736,60.736,0,0,0,.206,7.606,12.69,12.69,0,0,0,.822,4.522,8.047,8.047,0,0,0,2.056,3.289,8.047,8.047,0,0,0,3.289,2.056,12.69,12.69,0,0,0,4.522.822A60.735,60.735,0,0,0,18.5,37a60.735,60.735,0,0,0,7.606-.206,12.69,12.69,0,0,0,4.522-.822,8.624,8.624,0,0,0,5.344-5.344,12.69,12.69,0,0,0,.822-4.522c0-2.056.206-2.672.206-7.606a60.735,60.735,0,0,0-.206-7.606,12.69,12.69,0,0,0-.822-4.522,8.047,8.047,0,0,0-2.056-3.289,8.047,8.047,0,0,0-3.289-2.056A12.69,12.69,0,0,0,26.106.206,60.736,60.736,0,0,0,18.5,0m0,9.044A9.3,9.3,0,0,0,9.044,18.5,9.456,9.456,0,1,0,18.5,9.044m0,15.622A6.057,6.057,0,0,1,12.333,18.5,6.057,6.057,0,0,1,18.5,12.333,6.057,6.057,0,0,1,24.667,18.5,6.057,6.057,0,0,1,18.5,24.667M28.367,6.372a2.261,2.261,0,1,0,2.261,2.261,2.281,2.281,0,0,0-2.261-2.261" fill-rule="evenodd"/>
  </g>
</svg>
