<svg id="Layer_2" data-name="Layer 2" xmlns="http://www.w3.org/2000/svg" width="1100" height="400" viewBox="0 0 1100 400"><defs><style>.cls-1{fill:#605a5a;}</style></defs><title>nitiya_logo</title><path class="cls-1" d="M18.86,34l5.47,102s-2.19,2-10.94,5-3.28,13,2.19,11,12,3,10.93,11,2.19,67,2.19,67-9.29,22.5,3.83,24.5,6.56-22,4.37-23-2.18-61-2.18-61,0-7,5.46-3,58,58,82,94c0,0,13.12,29,17.5,10,0,0,15.31-5,3.28-14,0,0-4.38-40,4.37-48s21.87-16,21.87-16,0-7-6.56-2-14.21,10-16.4,10,5.47-5-3.28-12-19.68,4-15.31,11,5.47,49,4.37,53-5.46,3-6.56,2-73.26-90-83.1-96-13.12-14-7.65-18,88.57-59,102.78-75,6.56-22-4.37-20-7.66,18-20.78,29-71.07,57-82,59l-3.28-105s-1.09-5-8.75-6S18.86,34,18.86,34Z"/><path class="cls-1" d="M183,85.5s1.09-8,13.12-8,13.12,8,13.12,8,1.1,9-13.12,8S183,85.5,183,85.5Z"/><path class="cls-1" d="M200.92,220.5s0-3,5.47-8-1.09-13-9.84-13-10.94,8-8.75,15,1.09,41,1.09,41-3.28,9,2.19,11,13.12,1,10.94-3-5.47-10-4.38-23S200.92,220.5,200.92,220.5Z"/><path class="cls-1" d="M262.15,197.28s18.09,1.73,8.57-10.38a22,22,0,0,0-24.76,0c-13.33,8.65-30.47,25.95-30.47,36.32s7.61,19,27.61,29.41,33.33,17.3,44.76,27.68,20.95,19,22.86,45-1.91,33.73-11.43,45-24.76,17.29-41,18.16-43.81-.87-62.85-13.84-21.9-7.78-21.9-6.92,10.47,6.92,17.14,10.38,35.23,21.62,68.56,17.3,40.95-19,43.81-21.62a54.28,54.28,0,0,0,11.43-47.57s4.76-22.49-23.81-49.3c0,0-22.86-18.16-44.76-27.68s-21.9-18.16-21.9-25.95,4.76-13.83,15.23-19.89,17.15-6.92,17.15-6.92A22.44,22.44,0,0,0,262.15,197.28Z"/><path class="cls-1" d="M984.12,22.14s19.34-7,14.57-14.56S982.62,3.44,980.17,6.1s-3.54,14-3.54,14-3.74,4.7-5.78,14.54-5,29.6-5,29.6l-3.61,37.59c-1.83,19.14-2.38,36.25-1.83,42s-1.7,29.16-2,32.71-4.63,36.78-4.63,36.78-1.29,24.91-.82,31.38,2.59,18.78,1.91,25.87,4.16,13.91,6.33,14.09,5.25-8.87,2.32-12.68-5.65-21.17-5.11-26.85-1.63-28.71.34-37.84,5.1-30.32,5.1-30.32,3-31.2,2.18-34.12,2.79-40.51,2.79-40.51l2.45-37,9.12-37.85Z"/><path class="cls-1" d="M336,207c-.12-1.62-.23-3.13-.31-4.45-.46-7.36,2.19-24.29,2.19-24.29s.54-20.61-1.64-26.83c-.81-2.29-1.1-32.19-1.1-32.19V90.38l4.38-31.06,2.73-4.8s18.59-6.78,13.12-12.43-16.4-2.26-18.59,0-2.18,11.3-2.18,11.3-2.74,2.54-4.38,11.86C328.84,73.14,328,89,328,89v29.94c0,15.25,1.1,28.8,2.19,33.32s1.09,23.16,1.09,26c0,2.62-.94,25.7-1.07,29a258,258,0,0,0-28.45,2.65s-21.87,1.7-12,6.22a22.66,22.66,0,0,0,18.59,0,112.45,112.45,0,0,1,22.09-4.76c.38,6,1.17,17.44,2,21.13,1.09,5.09,4.37,14.69,4.37,20.34s5.47,10.73,7.66,10.73,4.37-7.34,1.09-10.17-7.65-16.38-7.65-20.9c0-3.32-.89-13.22-1.58-21.71,1.92-.14,3.9-.25,5.95-.31,19.68-.57,30.62-.57,36.08-.57s12-1.13,14.22-2.82C392.56,207,363.86,205.94,336,207Z"/><path class="cls-1" d="M451.33,261.12C440.39,250.2,436,250.2,434.92,229.58s4.38-12.13,3.28-27.89c0,0-3.28-10.92-23-4.86S384.62,228.37,384.62,232s-8.74,31.54,14.22,29.11,20.78-24.26,25.15-27.9c0,0,5.47,21.84,24.06,35.18C448.05,268.4,462.26,272,451.33,261.12Zm-35-23.05c-2.18,7.28-10.93,18.2-19.68,15.77s-10.93-9.7-3.28-25.47c0,0,13.12-18.19,20.78-15.77S418.52,230.8,416.33,238.07Z"/><path class="cls-1" d="M721.41,280.5c-13.12-1-20.77-7-17.49-19s28.43-12,33.89-27,10.94-21,0-26-26.24,6-35,16-16.4,26-12,39,14.22,22,29.53,23,31.71-7,31.71-7v-3S734.53,281.5,721.41,280.5Zm8.75-63s10.93-2,2.19,12-26.25,7-26.25,7C712.66,222.5,730.16,217.5,730.16,217.5Z"/><path class="cls-1" d="M766.24,227.5s-2.18,10,1.1,14-1.1,33,0,34-1.1,7,5.46,8,6.57-10,6.57-10-2.19-30,2.18-35,7.66-17,27.34-20,0-8,0-8a69.54,69.54,0,0,0-25.15,11s-12-1-13.12,0A60.28,60.28,0,0,0,766.24,227.5Z"/><path class="cls-1" d="M897.46,24c-4.37,0-5.47,6.06-4.37,9.52s-3.28,19.89-6.56,25.95-7.66,32.88-14.22,61.43-7.65,66.61-7.65,70.94-5.47,32.87-5.47,32.87c-3.28,0-16.4,3.46-23,6.06s-21.87,13.84-25.15,33.74,16.4,19.9,28.43,19,16.4-12.11,20.77-12.11h10.94s-1.1-6.92,0-20.76,3.28-21.63,4.37-28.55,0-18.17,0-26.82,1.09-55.37,4.37-74.4,16.41-74.41,19.69-82.19S901.83,24,897.46,24ZM848.25,274.89c-19.68,11.25-29.52-.86-30.61-4.32s-2.19-12.12,10.93-26,27.34-9.52,27.34-9.52c-2.19,10.39-2.19,5.2,0,17.31S848.25,274.89,848.25,274.89Zm18.59-41.53c-4.37,0-2.18-16.43-1.09-22.49s4.37-22.49,4.37-22.49,0,13,1.1,20.76S871.22,233.36,866.84,233.36Z"/><path class="cls-1" d="M931.36,275.07s-17.5,1.4-18.59-4.19,3.28-4.19,14.21-23.77S934.64,215,921.52,222s-15.31,21-21.87,23.77-12,4.19-8.75,12.58,14.21,23.76,23,25.16S931.36,275.07,931.36,275.07Z"/><path class="cls-1" d="M982.75,283.54l2.19-42.13s-2.19-17.67,1.09-19,18.59-6.8,18.59,5.44S999.15,236,997,244.13s-5.47,39.41-5.47,39.41S987.12,291.7,982.75,283.54Z"/><path class="cls-1" d="M1076.79,287.74c-1.1-2.63-4.38-2.63-8.75-3.94s-13.12-3.95-10.93-32.91-4.38-26.32-7.66-23.69-15.31,17.11-18.59,31.59a85.67,85.67,0,0,1-2.91,10c1.15-9.84,2.75-22.36,4-27.14,2.18-8.35,7.65-4.17,7.65-16.7s-15.31-7-18.59-5.56-1.09,19.48-1.09,19.48l-2.19,43.14c2.38,4.53,4.75,4.14,6.42,2.84,2.26,2.16,6.23.68,11.08-23.48,7.65-38.17,17.49-17.11,16.4-10.53s-2.19,23.69,3.28,30.27,10.93,7.9,15.31,9.22S1077.88,290.38,1076.79,287.74Z"/><ellipse class="cls-1" cx="994.78" cy="190.5" rx="10.93" ry="5"/><path class="cls-1" d="M742.36,27.41c-7.53,1.42-7.05,13.88-7.05,13.88s-2.86,12.19-8.68,18.44-31.36,82.76-37.25,97.15-31.33,117.8-31.33,117.8c-1.32-1.74-6.37,1.92-6.37,1.92s-15-22.81-18-29.37c-1.83-4-8.09-17.51-13.2-29.22,3.46-6.09,7.95-13.36,16.74-27.37a18.21,18.21,0,0,0,4.64-4.13c2.27-2.83,3-5.43,1.95-6.35l.42-.67-.66.51a1.28,1.28,0,0,0-.4-.15c-1.91-.41-5.58,1.91-8.21,5.18-2.05,2.55-2.85,4.92-2.19,6-3.42,5.31-8.91,13.85-14.29,22.31-2.44-5.72-4.37-10.52-5-12.81-2-7.3-12.35-19.34-12.35-19.34s-3.11-7.18-9.39-4.64-2.4,7.14-2.4,7.14C598.09,200.94,608,209.9,608,209.9a117.37,117.37,0,0,0,5.45,11.34c-3.83,6.06-7.21,11.49-9.24,14.9-5,8.32-10.58,25.16-13.66,35-3.29-18-18.29-99.11-22.66-111.38C563,146,542.67,71.89,537.26,66.24s-7.43-17.57-7.43-17.57,1.34-12.56-6.12-13.19-1,10.68-1,10.68l2.52,3.76,21,54s20.7,77.85,24,94.17,16.37,77.85,16.37,77.85-2.66,8.16,4.56,10,7.21-8.43,7.21-8.43l-.95-1.61a7.41,7.41,0,0,1-.69.36c2.4-9.62,7.13-26.24,13.83-39.48,2.19-4.33,3.87-7.67,5.45-10.69,11.06,20.72,29.26,52.4,29.26,52.4s4.59,10.15,12,7.5,5.27-10.57,5.27-10.57,17.33-63.14,21.82-79.88S715,98.49,715,98.49l24.79-56.42,2.79-4S749.89,26,742.36,27.41Z"/></svg>
