<svg id="Layer_2" data-name="Layer 2" xmlns="http://www.w3.org/2000/svg" width="990" height="590" viewBox="0 0 990 590"><defs><style>.cls-1{fill:#605a5a;}</style></defs><title>logo</title><path class="cls-1" d="M18,181l5,102s-2,2-10,5-3,13,2,11,11,3,10,11,2,67,2,67-8.5,22.5,3.5,24.5,6-22,4-23-2-61-2-61,0-7,5-3,53,58,75,94c0,0,12,29,16,10,0,0,14-5,3-14,0,0-4-40,4-48s20-16,20-16,0-7-6-2-13,10-15,10,5-5-3-12-18,4-14,11,5,49,4,53-5,3-6,2-67-90-76-96-12-14-7-18,81-59,94-75,6-22-4-20-7,18-19,29-65,57-75,59l-3-105s-1-5-8-6S18,181,18,181Z"/><path class="cls-1" d="M163.5,230.5s1-8,12-8,12,8,12,8,1,9-12,8S163.5,230.5,163.5,230.5Z"/><path class="cls-1" d="M184.5,367.5s0-3,5-8-1-13-9-13-10,8-8,15,1,41,1,41-3,9,2,11,12,1,10-3-5-10-4-23S184.5,367.5,184.5,367.5Z"/><path class="cls-1" d="M252.5,350.5s19,2,9-12a21.39,21.39,0,0,0-26,0c-14,10-32,30-32,42s8,22,29,34,35,20,47,32,22,22,24,52-2,39-12,52-26,20-43,21-46-1-66-16-23-9-23-8,11,8,18,12,37,25,72,20,43-22,46-25c0,0,19-22,12-55,0,0,5-26-25-57,0,0-24-21-47-32s-23-21-23-30,5-16,16-23,18-8,18-8A21.8,21.8,0,0,0,252.5,350.5Z"/><path class="cls-1" d="M899.78,42.53s18-11.09,14-22S899.18,15,896.82,19,893,39.82,893,39.82s-3.64,7.08-5.92,21.67-5.86,43.87-5.86,43.87l-4.87,55.57c-2.49,28.32-3.7,53.57-3.44,62s-2.78,43.08-3.24,48.33-5.78,54.43-5.78,54.43-2.22,36.79-2,46.32,1.59,27.61.67,38.09,3.23,20.36,5.22,20.54,5.18-13.28,2.66-18.79-4.31-31-3.57-39.41-.31-42.29,1.89-55.83,5.94-44.92,5.94-44.92,4.05-46.13,3.42-50.42,4.25-59.85,4.25-59.85l3.79-54.61,9.95-56.19Z"/><path class="cls-1" d="M310.79,344.38c-.12-2.86-.21-5.53-.29-7.88-.42-13,2-43,2-43S313,257,311,246c-.74-4.06-1-57-1-57V138l4-55,2.5-8.5s17-12,12-22-15-4-17,0-2,20-2,20-2.5,4.5-4,21c-1.27,14-2,42-2,42v53c0,27,1,51,2,59s1,41,1,46c0,4.64-.86,45.49-1,51.31-9.53.88-18.69,2.34-26,4.69,0,0-20,3-11,11s17,0,17,0a64.75,64.75,0,0,1,20.2-8.42c.35,10.58,1.07,30.87,1.8,37.42,1,9,4,26,4,36s5,19,7,19,4-13,1-18-7-29-7-37c0-5.89-.81-23.42-1.44-38.44,1.75-.26,3.57-.46,5.44-.56,18-1,28-1,33-1s11-2,13-5A416.78,416.78,0,0,0,310.79,344.38Z"/><path class="cls-1" d="M413.5,420.5c-10-9-14-9-15-26s4-10,3-23c0,0-3-9-21-4s-28,26-28,29-8,26,13,24,19-20,23-23c0,0,5,18,22,29C410.5,426.5,423.5,429.5,413.5,420.5Zm-32-19c-2,6-10,15-18,13s-10-8-3-21c0,0,12-15,19-13S383.5,395.5,381.5,401.5Z"/><path class="cls-1" d="M658.5,426.5c-12-1-19-7-16-19s26-12,31-27,10-21,0-26-24,6-32,16-15,26-11,39,13,22,27,23,29-7,29-7v-3S670.5,427.5,658.5,426.5Zm8-63s10-2,2,12-24,7-24,7C650.5,368.5,666.5,363.5,666.5,363.5Z"/><path class="cls-1" d="M694.5,373.5s-2,10,1,14-1,33,0,34-1,7,5,8,6-10,6-10-2-30,2-35,7-17,25-20,0-8,0-8-11,2-23,11c0,0-11-1-12,0A61.25,61.25,0,0,0,694.5,373.5Z"/><path class="cls-1" d="M814.5,129.5c-4,0-5,7-4,11s-3,23-6,30-7,38-13,71-7,77-7,82-5,38-5,38c-3,0-15,4-21,7s-20,16-23,39,15,23,26,22,15-14,19-14h10s-1-8,0-24,3-25,4-33,0-21,0-31,1-64,4-86,15-86,18-95S818.5,129.5,814.5,129.5Zm-45,290c-18,13-27-1-28-5s-2-14,10-30,25-11,25-11c-2,12-2,6,0,20S769.5,419.5,769.5,419.5Zm17-48c-4,0-2-19-1-26s4-26,4-26,0,15,1,24S790.5,371.5,786.5,371.5Z"/><path class="cls-1" d="M843.5,423.5s-16,1-17-3,3-3,13-17,7-23-5-18-14,15-20,17-11,3-8,9,13,17,21,18S843.5,423.5,843.5,423.5Z"/><path class="cls-1" d="M889.5,430.5l2-31s-2-13,1-14,17-5,17,4-5,6-7,12-5,29-5,29S893.5,436.5,889.5,430.5Z"/><path class="cls-1" d="M980.5,434.5c-1-2-4-2-8-3s-12-3-10-25-4-20-7-18-14,13-17,24a56.55,56.55,0,0,1-2.67,7.64c1-7.48,2.53-17,3.67-20.62,2-6.35,7-3.17,7-12.69s-14-5.29-17-4.23-1,14.8-1,14.8l-2,32.78c2.17,3.44,4.34,3.15,5.87,2.16,2.07,1.64,5.7.52,10.13-17.84,7-29,16-13,15-8s-2,18,3,23,10,6,14,7S981.5,436.5,980.5,434.5Z"/><ellipse class="cls-1" cx="902.5" cy="336.5" rx="10" ry="5"/><path class="cls-1" d="M662.29,23.24C655.45,25,656.76,45,656.76,45S655,64.35,650,74,626.88,204.5,622.45,227.16s-20.7,186.61-20.7,186.61c-1.34-2.86-5.73,2.68-5.73,2.68S580.61,379,577.36,368.27c-2-6.46-8.67-28.54-14.2-47.61,2.77-9.53,6.4-20.89,13.54-42.77a21.66,21.66,0,0,0,4-6.32c1.89-4.37,2.39-8.49,1.35-10,.11-.36.23-.7.34-1.06l-.57.78a1.35,1.35,0,0,0-.38-.26c-1.79-.77-5,2.71-7.21,7.78-1.71,4-2.28,7.7-1.6,9.52-2.78,8.28-7.25,21.61-11.62,34.82-2.65-9.31-4.76-17.13-5.51-20.84-2.37-11.8-12.73-31.74-12.73-31.74s-3.37-11.69-9-8-1.72,11.27-1.72,11.27c9.29,28.12,19.08,43.09,19.08,43.09.79,3.24,2.92,9.93,5.81,18.5-3.11,9.46-5.85,17.95-7.48,23.27-4,13-8,39.62-10.16,55.21C535,374.91,515.56,244,510.68,224.09c-5.48-22.43-29.39-142.33-34.76-151.72s-8.08-28.61-8.08-28.61.36-20-6.55-21.5-.16,17-.16,17l2.59,6.19,23.08,87.78s24.5,126,28.72,152.3S536,411.24,536,411.24s-1.88,12.91,4.9,16.37,6.06-13,6.06-13l-1-2.65a4.79,4.79,0,0,1-.62.54c1.55-15.24,4.75-41.55,10-62.34,1.71-6.78,3-12,4.28-16.76,11.64,33.88,30.62,85.77,30.62,85.77s4.93,16.54,11.54,12.76S606,415.3,606,415.3s11.59-100,14.56-126.51S642,135.3,642,135.3L661,46.54l2.29-6.3S669.13,21.44,662.29,23.24Z"/></svg>
